<svg width="14" height="14" viewBox="0 0 14 14" fill="none" xmlns="http://www.w3.org/2000/svg">
<path d="M6.99967 6.99992C6.08301 6.99992 5.29829 6.67353 4.64551 6.02075C3.99273 5.36797 3.66634 4.58325 3.66634 3.66659C3.66634 2.74992 3.99273 1.9652 4.64551 1.31242C5.29829 0.659641 6.08301 0.333252 6.99967 0.333252C7.91634 0.333252 8.70106 0.659641 9.35384 1.31242C10.0066 1.9652 10.333 2.74992 10.333 3.66659C10.333 4.58325 10.0066 5.36797 9.35384 6.02075C8.70106 6.67353 7.91634 6.99992 6.99967 6.99992ZM0.333008 13.6666V11.3333C0.333008 10.861 0.454536 10.427 0.697591 10.0312C0.940647 9.63533 1.26356 9.33325 1.66634 9.12492C2.52745 8.69436 3.40245 8.37145 4.29134 8.15617C5.18023 7.94089 6.08301 7.83325 6.99967 7.83325C7.91634 7.83325 8.81912 7.94089 9.70801 8.15617C10.5969 8.37145 11.4719 8.69436 12.333 9.12492C12.7358 9.33325 13.0587 9.63533 13.3018 10.0312C13.5448 10.427 13.6663 10.861 13.6663 11.3333V13.6666H0.333008ZM1.99967 11.9999H11.9997V11.3333C11.9997 11.1805 11.9615 11.0416 11.8851 10.9166C11.8087 10.7916 11.708 10.6944 11.583 10.6249C10.833 10.2499 10.0761 9.96867 9.31217 9.78117C8.54829 9.59367 7.77745 9.49992 6.99967 9.49992C6.2219 9.49992 5.45106 9.59367 4.68717 9.78117C3.92329 9.96867 3.16634 10.2499 2.41634 10.6249C2.29134 10.6944 2.19065 10.7916 2.11426 10.9166C2.03787 11.0416 1.99967 11.1805 1.99967 11.3333V11.9999ZM6.99967 5.33325C7.45801 5.33325 7.85037 5.17006 8.17676 4.84367C8.50315 4.51728 8.66634 4.12492 8.66634 3.66659C8.66634 3.20825 8.50315 2.81589 8.17676 2.4895C7.85037 2.16311 7.45801 1.99992 6.99967 1.99992C6.54134 1.99992 6.14898 2.16311 5.82259 2.4895C5.4962 2.81589 5.33301 3.20825 5.33301 3.66659C5.33301 4.12492 5.4962 4.51728 5.82259 4.84367C6.14898 5.17006 6.54134 5.33325 6.99967 5.33325Z" fill="white"/>
</svg>
