<svg xmlns="http://www.w3.org/2000/svg" viewBox="0 0 64 64" id="open-door">
  <path fill="#2a2f63" d="M55 0H9c-.03 0-.07 0-.1.01-.05 0-.1 0-.14.01-.06.01-.11.03-.15.04-.04.01-.08.02-.12.04-.05.01-.09.03-.14.06-.04.02-.07.03-.1.06-.04.03-.09.06-.13.09-.03.03-.07.05-.1.08-.04.04-.07.08-.1.11-.02.03-.05.05-.08.09-.03.04-.05.09-.07.13-.02.03-.05.07-.07.11-.02.05-.04.11-.06.15l-.03.09v.03c-.02.06-.02.1-.03.15 0 .05-.01.1-.01.14 0 .01-.01.02-.01.04v61.13c0 .01.01.03.01.04 0 .06.01.11.01.15.01.05.02.1.03.14.01.02.01.03.01.05 0 .01.01.03.02.04.04.13.1.27.18.38a1.789 1.789 0 0 0 .29.31c.02.02.04.03.06.05.1.08.22.13.34.18l.09.03c.12.04.26.06.39.06.01 0 .01.01.01.01h46c.78 0 1.43-.65 1.43-1.43V1.43C56.43.64 55.79 0 55 0zM10.43 3.28l29.89 7.71v41.32l-29.89 8.37V3.28zm43.14 57.85H19.43l22.71-6.36c.62-.17 1.05-.74 1.05-1.38V9.87c0-.65-.44-1.22-1.08-1.39L20.3 2.87h33.27v58.26z"></path>
  <path fill="#edeced" d="M53.57 2.87v58.27H19.43l22.71-6.36c.62-.17 1.05-.74 1.05-1.38V9.87c0-.65-.44-1.22-1.08-1.39L20.3 2.87h33.27z"></path>
  <path fill="#9fd1f0" d="M10.43 3.28v57.4l29.89-8.37V10.98l-29.89-7.7zm25.92 30.9a1.43 1.43 0 1 1-2.86 0v-5.09a1.43 1.43 0 1 1 2.86 0v5.09z"></path>
  <path fill="#2a2f63" d="M36.35 29.09v5.09a1.43 1.43 0 1 1-2.86 0v-5.09c0-.79.64-1.43 1.43-1.43.79-.01 1.43.63 1.43 1.43z"></path>
</svg>
